<svg xmlns="http://www.w3.org/2000/svg" viewBox="0 0 400 225" fill="none">
  <defs>
    <linearGradient id="bg5" x1="0%" y1="0%" x2="100%" y2="100%">
      <stop offset="0%" stop-color="#fa709a"/>
      <stop offset="100%" stop-color="#fee140"/>
    </linearGradient>
  </defs>
  <rect width="400" height="225" fill="url(#bg5)"/>
  <!-- Shield icon -->
  <path d="M200 45 L235 60 L235 105 C235 130 200 150 200 150 C200 150 165 130 165 105 L165 60 Z" fill="rgba(255,255,255,0.15)" stroke="white" stroke-width="2.5"/>
  <!-- Lock in shield -->
  <rect x="188" y="90" width="24" height="20" rx="3" fill="rgba(255,255,255,0.3)" stroke="white" stroke-width="2"/>
  <path d="M192 90 L192 82 C192 76 196 72 200 72 C204 72 208 76 208 82 L208 90" stroke="white" stroke-width="2" fill="none" stroke-linecap="round"/>
  <circle cx="200" cy="100" r="3" fill="white"/>
  <!-- Decorative circles -->
  <circle cx="120" cy="80" r="6" fill="rgba(255,255,255,0.2)" stroke="rgba(255,255,255,0.4)" stroke-width="1.5"/>
  <circle cx="280" cy="80" r="6" fill="rgba(255,255,255,0.2)" stroke="rgba(255,255,255,0.4)" stroke-width="1.5"/>
  <circle cx="140" cy="140" r="4" fill="rgba(255,255,255,0.15)"/>
  <circle cx="260" cy="140" r="4" fill="rgba(255,255,255,0.15)"/>
  <!-- Connection lines -->
  <path d="M126 80 L168 72" stroke="rgba(255,255,255,0.3)" stroke-width="1" stroke-dasharray="3 2"/>
  <path d="M274 80 L232 72" stroke="rgba(255,255,255,0.3)" stroke-width="1" stroke-dasharray="3 2"/>
  <!-- Text -->
  <text x="200" y="180" text-anchor="middle" font-family="sans-serif" font-size="14" font-weight="600" fill="rgba(255,255,255,0.9)">Why Backup Matters</text>
  <text x="200" y="200" text-anchor="middle" font-family="sans-serif" font-size="11" fill="rgba(255,255,255,0.6)">Real Cases &amp; Lessons</text>
</svg>
